<svg width="32" height="35" viewBox="0 0 32 35" fill="none" xmlns="http://www.w3.org/2000/svg">
<path d="M15.2245 1.93867C14.1185 2.51267 11.2415 3.69567 9.83447 4.15067C8.05647 4.72467 6.71247 5.01867 3.81447 5.46667C2.81347 5.62067 1.93847 5.76067 1.87547 5.78167C1.71447 5.83067 1.71447 6.05467 1.85447 9.20467C1.98747 12.1797 2.19047 14.5947 2.37947 15.5047C2.91147 18.0667 3.84947 20.8527 4.75247 22.5747C5.84447 24.6607 7.53847 26.9847 9.10647 28.5527C9.89047 29.3367 12.2215 31.2827 13.0195 31.8217C13.5515 32.1787 14.9235 32.9417 15.3295 33.1097L15.7215 33.2637L16.1695 33.0817C18.4445 32.1577 22.1965 29.0777 24.1495 26.5437C26.5575 23.4077 27.8595 20.7057 28.7905 16.8627C29.3505 14.5737 29.4695 13.3417 29.7215 7.02067L29.7705 5.81667L29.6025 5.78167C29.1965 5.69067 28.2865 5.52967 27.9645 5.49467C26.8095 5.34767 24.8495 4.99067 23.7645 4.72467C21.5175 4.17167 19.3615 3.38067 16.5615 2.07167C16.1835 1.89667 15.8055 1.74967 15.7215 1.74967C15.6445 1.75667 15.4205 1.84067 15.2245 1.93867ZM18.1995 6.57967C20.1595 7.35667 22.9175 8.13367 25.2975 8.56767L26.1305 8.72167L26.1165 9.44967C26.0955 10.8777 25.8855 13.6357 25.7175 14.7697C25.4375 16.5967 24.6395 18.9697 23.6175 21.0137C23.2675 21.7067 22.3785 23.0997 21.7065 24.0097C20.5585 25.5637 17.6045 28.3007 16.2115 29.1057L15.7285 29.3857L15.3015 29.1337C14.6155 28.7347 12.5785 27.0617 11.5845 26.0747C8.91747 23.4287 7.06247 20.0617 6.02647 16.0087C5.75347 14.9447 5.69047 14.4827 5.56447 12.8447C5.44547 11.2557 5.31947 8.79867 5.35447 8.75667C5.36847 8.74267 5.76747 8.65867 6.24347 8.57467C9.49847 7.95867 12.3335 7.08367 15.1405 5.82367L15.7565 5.55067L16.4705 5.86567C16.8625 6.03367 17.6395 6.35567 18.1995 6.57967Z" fill="#77D21C" stroke="#0F00F0" stroke-width="0.133333"/>
<path d="M22.3502 10.6191C22.3012 10.6331 20.5582 12.4321 18.4722 14.6021C16.3862 16.7791 14.6572 18.5431 14.6292 18.5361C14.6082 18.5221 13.7752 17.6681 12.7882 16.6251C11.8012 15.5891 10.9192 14.7141 10.8352 14.6791C10.7512 14.6511 10.6112 14.6371 10.5342 14.6581C10.4572 14.6791 10.0372 15.0501 9.60323 15.4911C8.89623 16.2121 8.81923 16.3101 8.81923 16.5411C8.81923 16.8491 8.60923 16.6041 11.8082 19.9781C13.1662 21.4061 14.3562 22.6031 14.4472 22.6381C14.5382 22.6731 14.6922 22.6801 14.7902 22.6591C14.9022 22.6241 16.4212 21.0911 18.9762 18.4311C21.1812 16.1281 23.3162 13.9091 23.7082 13.5031C24.6742 12.5021 24.6742 12.5161 23.7152 11.4731C23.3232 11.0461 22.9452 10.6681 22.8822 10.6331C22.7492 10.5701 22.4902 10.5561 22.3502 10.6191Z" fill="#77D21C"/>
</svg>
