<svg width="29" height="33" viewBox="0 0 29 33" fill="none" xmlns="http://www.w3.org/2000/svg">
<path d="M14.2245 0.938671C13.1185 1.51267 10.2415 2.69567 8.83447 3.15067C7.05647 3.72467 5.71247 4.01867 2.81447 4.46667C1.81347 4.62067 0.938466 4.76067 0.875466 4.78167C0.714466 4.83067 0.714466 5.05467 0.854466 8.20467C0.987466 11.1797 1.19047 13.5947 1.37947 14.5047C1.91147 17.0667 2.84947 19.8527 3.75247 21.5747C4.84447 23.6607 6.53847 25.9847 8.10647 27.5527C8.89047 28.3367 11.2215 30.2827 12.0195 30.8217C12.5515 31.1787 13.9235 31.9417 14.3295 32.1097L14.7215 32.2637L15.1695 32.0817C17.4445 31.1577 21.1965 28.0777 23.1495 25.5437C25.5575 22.4077 26.8595 19.7057 27.7905 15.8627C28.3505 13.5737 28.4695 12.3417 28.7215 6.02067L28.7705 4.81667L28.6025 4.78167C28.1965 4.69067 27.2865 4.52967 26.9645 4.49467C25.8095 4.34767 23.8495 3.99067 22.7645 3.72467C20.5175 3.17167 18.3615 2.38067 15.5615 1.07167C15.1835 0.896671 14.8055 0.749671 14.7215 0.749671C14.6445 0.756671 14.4205 0.840671 14.2245 0.938671ZM17.1995 5.57967C19.1595 6.35667 21.9175 7.13367 24.2975 7.56767L25.1305 7.72167L25.1165 8.44967C25.0955 9.87767 24.8855 12.6357 24.7175 13.7697C24.4375 15.5967 23.6395 17.9697 22.6175 20.0137C22.2675 20.7067 21.3785 22.0997 20.7065 23.0097C19.5585 24.5637 16.6045 27.3007 15.2115 28.1057L14.7285 28.3857L14.3015 28.1337C13.6155 27.7347 11.5785 26.0617 10.5845 25.0747C7.91747 22.4287 6.06247 19.0617 5.02647 15.0087C4.75347 13.9447 4.69047 13.4827 4.56447 11.8447C4.44547 10.2557 4.31947 7.79867 4.35447 7.75667C4.36847 7.74267 4.76747 7.65867 5.24347 7.57467C8.49847 6.95867 11.3335 6.08367 14.1405 4.82367L14.7565 4.55067L15.4705 4.86567C15.8625 5.03367 16.6395 5.35567 17.1995 5.57967Z" fill="#F7AC01"/>
<path d="M14.0494 10.277C13.1884 10.354 12.2294 10.529 11.5924 10.732C11.0534 10.9 11.0394 10.914 11.0394 11.131C11.0394 11.257 10.9904 11.999 10.9344 12.783C10.8784 13.567 10.8364 14.225 10.8504 14.232C10.8854 14.267 12.5864 14.47 12.8244 14.47H13.0414L13.3004 13.588C13.4404 13.098 13.6014 12.643 13.6644 12.58C13.7204 12.517 13.8954 12.426 14.0424 12.384C14.7284 12.174 15.3934 12.384 15.7644 12.916C15.9604 13.196 15.9744 13.266 15.9744 13.833C15.9744 14.372 15.9534 14.484 15.7504 14.897C15.4634 15.485 14.7284 16.192 13.6014 16.99C13.1534 17.305 12.7894 17.606 12.7894 17.648C12.7894 17.872 13.0764 18.831 13.2654 19.237C13.6154 19.986 13.5454 19.958 14.4134 19.825C14.8194 19.769 15.3164 19.671 15.5194 19.608L15.8764 19.503L15.8274 18.838C15.7714 18.033 15.7644 18.04 16.6814 17.557C18.7114 16.486 19.6564 15.443 19.8734 14.029C20.0204 13.056 19.7824 12.202 19.1874 11.537C18.2284 10.466 16.5204 10.046 14.0494 10.277Z" fill="#F7AC01"/>
<path d="M13.9798 21.1962C13.3218 21.4902 12.9718 22.0152 12.9648 22.7012C12.9648 23.0512 12.9998 23.1842 13.1748 23.4642C13.8608 24.5632 15.7578 24.5002 16.3458 23.3592C16.4858 23.0932 16.5068 22.9672 16.4788 22.5682C16.4368 21.9242 16.1848 21.5182 15.6668 21.2452C15.1908 20.9932 14.4698 20.9722 13.9798 21.1962Z" fill="#F7AC01"/>
</svg>
